<?xml version="1.0" standalone="no"?><!DOCTYPE svg PUBLIC "-//W3C//DTD SVG 1.1//EN" "http://www.w3.org/Graphics/SVG/1.1/DTD/svg11.dtd"><svg t="1737483565146" class="icon" viewBox="0 0 1024 1024" version="1.1" xmlns="http://www.w3.org/2000/svg" p-id="37593" xmlns:xlink="http://www.w3.org/1999/xlink" width="200" height="200"><path d="M381.713222 595.56344h186.110318v55.833095H381.713222zM381.713222 465.286217h260.554445v55.833096H381.713222zM381.713222 335.008995h260.554445v55.833095H381.713222z" p-id="37594" data-spm-anchor-id="a313x.search_index.0.i40.10cf3a81axI8TC" class="selected" fill="#ffffff"></path><path d="M919.19982 210.128971L570.056863 15.085358a119.296714 119.296714 0 0 0-116.132838 0L104.781068 210.128971A111.666191 111.666191 0 0 0 46.714649 307.650778v409.442699a111.666191 111.666191 0 0 0 58.066419 97.521807l349.142957 194.299172a119.296714 119.296714 0 0 0 116.132838 0l349.142957-195.043613A111.666191 111.666191 0 0 0 977.266239 716.349036v-409.442699a111.666191 111.666191 0 0 0-58.066419-96.777366zM735.322826 707.229631c0 20.472135-35.36096 37.222064-55.833096 37.222063H325.880126a37.222064 37.222064 0 0 1-37.222063-37.222063V297.786931a37.222064 37.222064 0 0 1 37.222063-37.222064h372.220636a37.222064 37.222064 0 0 1 37.222064 37.222064z" p-id="37595" data-spm-anchor-id="a313x.search_index.0.i39.10cf3a81axI8TC" class="selected" fill="#ffffff"></path></svg>